{
	"asset":{
		"generator":"Khronos glTF Blender I/O v3.5.30",
		"version":"2.0"
	},
	"scene":0,
	"scenes":[
		{
			"name":"Scene",
			"nodes":[
				0
			]
		}
	],
	"nodes":[
		{
			"mesh":0,
			"name":"Grass1",
			"rotation":[
				0,
				0.7071068286895752,
				0,
				0.7071068286895752
			]
		}
	],
	"materials":[
		{
			"doubleSided":true,
			"name":"Grass1",
			"pbrMetallicRoughness":{
				"baseColorTexture":{
					"index":0
				},
				"metallicFactor":0,
				"roughnessFactor":0.5
			}
		}
	],
	"meshes":[
		{
			"name":"Plant_3_CUBezierCurve.001",
			"primitives":[
				{
					"attributes":{
						"POSITION":0,
						"TEXCOORD_0":1,
						"NORMAL":2
					},
					"indices":3,
					"material":0
				}
			]
		}
	],
	"textures":[
		{
			"sampler":0,
			"source":0
		}
	],
	"images":[
		{
			"mimeType":"image/png",
			"name":"Planet1",
			"uri":"Planet1.png"
		}
	],
	"accessors":[
		{
			"bufferView":0,
			"componentType":5126,
			"count":1752,
			"max":[
				0.7679386138916016,
				2.327888250350952,
				0.7670097351074219
			],
			"min":[
				-0.42748069763183594,
				-0.00971947144716978,
				-0.9324226379394531
			],
			"type":"VEC3"
		},
		{
			"bufferView":1,
			"componentType":5126,
			"count":1752,
			"type":"VEC2"
		},
		{
			"bufferView":2,
			"componentType":5126,
			"count":1752,
			"type":"VEC3"
		},
		{
			"bufferView":3,
			"componentType":5123,
			"count":4824,
			"type":"SCALAR"
		}
	],
	"bufferViews":[
		{
			"buffer":0,
			"byteLength":21024,
			"byteOffset":0,
			"target":34962
		},
		{
			"buffer":0,
			"byteLength":14016,
			"byteOffset":21024,
			"target":34962
		},
		{
			"buffer":0,
			"byteLength":21024,
			"byteOffset":35040,
			"target":34962
		},
		{
			"buffer":0,
			"byteLength":9648,
			"byteOffset":56064,
			"target":34963
		}
	],
	"samplers":[
		{
			"magFilter":9729,
			"minFilter":9987
		}
	],
	"buffers":[
		{
			"byteLength":65712,
			"uri":"Grass1.bin"
		}
	]
}
