{
	"asset":{
		"generator":"Khronos glTF Blender I/O v3.5.30",
		"version":"2.0"
	},
	"scene":0,
	"scenes":[
		{
			"name":"Scene",
			"nodes":[
				0
			]
		}
	],
	"nodes":[
		{
			"mesh":0,
			"name":"Grass4"
		}
	],
	"materials":[
		{
			"doubleSided":true,
			"name":"Grass4",
			"pbrMetallicRoughness":{
				"baseColorTexture":{
					"index":0
				},
				"metallicFactor":0,
				"roughnessFactor":0.5
			}
		}
	],
	"meshes":[
		{
			"name":"Plant_3_CUBezierCurve.003",
			"primitives":[
				{
					"attributes":{
						"POSITION":0,
						"TEXCOORD_0":1,
						"NORMAL":2
					},
					"indices":3,
					"material":0
				}
			]
		}
	],
	"textures":[
		{
			"sampler":0,
			"source":0
		}
	],
	"images":[
		{
			"mimeType":"image/png",
			"name":"Planet1",
			"uri":"Planet1.png"
		}
	],
	"accessors":[
		{
			"bufferView":0,
			"componentType":5126,
			"count":1751,
			"max":[
				1.0894802808761597,
				2.965833902359009,
				0.6086528301239014
			],
			"min":[
				-1.0304487943649292,
				-0.012382986955344677,
				-0.8349671959877014
			],
			"type":"VEC3"
		},
		{
			"bufferView":1,
			"componentType":5126,
			"count":1751,
			"type":"VEC2"
		},
		{
			"bufferView":2,
			"componentType":5126,
			"count":1751,
			"type":"VEC3"
		},
		{
			"bufferView":3,
			"componentType":5123,
			"count":4824,
			"type":"SCALAR"
		}
	],
	"bufferViews":[
		{
			"buffer":0,
			"byteLength":21012,
			"byteOffset":0,
			"target":34962
		},
		{
			"buffer":0,
			"byteLength":14008,
			"byteOffset":21012,
			"target":34962
		},
		{
			"buffer":0,
			"byteLength":21012,
			"byteOffset":35020,
			"target":34962
		},
		{
			"buffer":0,
			"byteLength":9648,
			"byteOffset":56032,
			"target":34963
		}
	],
	"samplers":[
		{
			"magFilter":9729,
			"minFilter":9987
		}
	],
	"buffers":[
		{
			"byteLength":65680,
			"uri":"Grass4.bin"
		}
	]
}
