{
    "asset" : {
        "generator" : "Khronos glTF Blender I/O v3.3.32",
        "version" : "2.0"
    },
    "scene" : 0,
    "scenes" : [
        {
            "name" : "Scene",
            "nodes" : [
                0,
                1,
                3,
                4
            ]
        }
    ],
    "nodes" : [
        {
            "name" : "tmpParent",
            "translation" : [
                1.5525529384613037,
                0,
                -2.6876718997955322
            ]
        },
        {
            "name" : "tmpParent.001"
        },
        {
            "mesh" : 0,
            "name" : "skyscraperD",
            "translation" : [
                -2.371515989303589,
                0,
                -3.1120529174804688
            ]
        },
        {
            "children" : [
                2
            ],
            "name" : "tmpParent.003"
        },
        {
            "name" : "tmpParent.005",
            "translation" : [
                0,
                0,
                -4.699211120605469
            ]
        }
    ],
    "materials" : [
        {
            "doubleSided" : true,
            "name" : "\u30de\u30c6\u30ea\u30a2\u30eb.006",
            "pbrMetallicRoughness" : {
                "baseColorTexture" : {
                    "index" : 0
                },
                "metallicFactor" : 0,
                "roughnessFactor" : 0.5
            }
        }
    ],
    "meshes" : [
        {
            "name" : "Mesh skyscraperD",
            "primitives" : [
                {
                    "attributes" : {
                        "POSITION" : 0,
                        "NORMAL" : 1,
                        "TEXCOORD_0" : 2
                    },
                    "indices" : 3,
                    "material" : 0
                }
            ]
        }
    ],
    "textures" : [
        {
            "sampler" : 0,
            "source" : 0
        }
    ],
    "images" : [
        {
            "mimeType" : "image/png",
            "name" : "wall.006",
            "uri" : "wall_006.png"
        }
    ],
    "accessors" : [
        {
            "bufferView" : 0,
            "componentType" : 5126,
            "count" : 1994,
            "max" : [
                0.6200000047683716,
                5.5,
                0.7478913068771362
            ],
            "min" : [
                -0.6200000047683716,
                0,
                -0.6200000047683716
            ],
            "type" : "VEC3"
        },
        {
            "bufferView" : 1,
            "componentType" : 5126,
            "count" : 1994,
            "type" : "VEC3"
        },
        {
            "bufferView" : 2,
            "componentType" : 5126,
            "count" : 1994,
            "type" : "VEC2"
        },
        {
            "bufferView" : 3,
            "componentType" : 5123,
            "count" : 2958,
            "type" : "SCALAR"
        }
    ],
    "bufferViews" : [
        {
            "buffer" : 0,
            "byteLength" : 23928,
            "byteOffset" : 0,
            "target" : 34962
        },
        {
            "buffer" : 0,
            "byteLength" : 23928,
            "byteOffset" : 23928,
            "target" : 34962
        },
        {
            "buffer" : 0,
            "byteLength" : 15952,
            "byteOffset" : 47856,
            "target" : 34962
        },
        {
            "buffer" : 0,
            "byteLength" : 5916,
            "byteOffset" : 63808,
            "target" : 34963
        }
    ],
    "samplers" : [
        {
            "magFilter" : 9729,
            "minFilter" : 9987
        }
    ],
    "buffers" : [
        {
            "byteLength" : 69724,
            "uri" : "highBill.bin"
        }
    ]
}
