{
    "asset" : {
        "generator" : "Khronos glTF Blender I/O v3.3.32",
        "version" : "2.0"
    },
    "scene" : 0,
    "scenes" : [
        {
            "name" : "Scene",
            "nodes" : [
                1,
                2,
                3,
                4
            ]
        }
    ],
    "nodes" : [
        {
            "mesh" : 0,
            "name" : "skyscraperA"
        },
        {
            "children" : [
                0
            ],
            "name" : "tmpParent",
            "translation" : [
                1.5525529384613037,
                0,
                -2.6876718997955322
            ]
        },
        {
            "name" : "tmpParent.001"
        },
        {
            "name" : "tmpParent.003"
        },
        {
            "name" : "tmpParent.005",
            "translation" : [
                0,
                0,
                -4.699211120605469
            ]
        }
    ],
    "materials" : [
        {
            "doubleSided" : true,
            "name" : "\u30de\u30c6\u30ea\u30a2\u30eb.005",
            "pbrMetallicRoughness" : {
                "baseColorTexture" : {
                    "index" : 0
                },
                "metallicFactor" : 0,
                "roughnessFactor" : 0.5
            }
        }
    ],
    "meshes" : [
        {
            "name" : "Mesh skyscraperA",
            "primitives" : [
                {
                    "attributes" : {
                        "POSITION" : 0,
                        "NORMAL" : 1,
                        "TEXCOORD_0" : 2
                    },
                    "indices" : 3,
                    "material" : 0
                }
            ]
        }
    ],
    "textures" : [
        {
            "sampler" : 0,
            "source" : 0
        }
    ],
    "images" : [
        {
            "mimeType" : "image/png",
            "name" : "wall",
            "uri" : "wall.png"
        }
    ],
    "accessors" : [
        {
            "bufferView" : 0,
            "componentType" : 5126,
            "count" : 1156,
            "max" : [
                0.6200000047683716,
                2.879999876022339,
                0.6200000047683716
            ],
            "min" : [
                -0.6200000047683716,
                -1.2022240344150706e-31,
                -0.6200000047683716
            ],
            "type" : "VEC3"
        },
        {
            "bufferView" : 1,
            "componentType" : 5126,
            "count" : 1156,
            "type" : "VEC3"
        },
        {
            "bufferView" : 2,
            "componentType" : 5126,
            "count" : 1156,
            "type" : "VEC2"
        },
        {
            "bufferView" : 3,
            "componentType" : 5123,
            "count" : 1716,
            "type" : "SCALAR"
        }
    ],
    "bufferViews" : [
        {
            "buffer" : 0,
            "byteLength" : 13872,
            "byteOffset" : 0,
            "target" : 34962
        },
        {
            "buffer" : 0,
            "byteLength" : 13872,
            "byteOffset" : 13872,
            "target" : 34962
        },
        {
            "buffer" : 0,
            "byteLength" : 9248,
            "byteOffset" : 27744,
            "target" : 34962
        },
        {
            "buffer" : 0,
            "byteLength" : 3432,
            "byteOffset" : 36992,
            "target" : 34963
        }
    ],
    "samplers" : [
        {
            "magFilter" : 9729,
            "minFilter" : 9987
        }
    ],
    "buffers" : [
        {
            "byteLength" : 40424,
            "uri" : "lowBill.bin"
        }
    ]
}
