{
	"asset":{
		"generator":"Khronos glTF Blender I/O v3.5.30",
		"version":"2.0"
	},
	"scene":0,
	"scenes":[
		{
			"name":"Scene",
			"nodes":[
				0
			]
		}
	],
	"nodes":[
		{
			"mesh":0,
			"name":"Planet2"
		}
	],
	"materials":[
		{
			"doubleSided":true,
			"name":"Planet2",
			"pbrMetallicRoughness":{
				"baseColorTexture":{
					"index":0
				},
				"metallicFactor":0,
				"roughnessFactor":0.5
			}
		}
	],
	"meshes":[
		{
			"name":"Planet_1_Icosphere.001",
			"primitives":[
				{
					"attributes":{
						"POSITION":0,
						"TEXCOORD_0":1,
						"NORMAL":2
					},
					"indices":3,
					"material":0
				}
			]
		}
	],
	"textures":[
		{
			"sampler":0,
			"source":0
		}
	],
	"images":[
		{
			"mimeType":"image/png",
			"name":"Planet1",
			"uri":"Planet1.png"
		}
	],
	"accessors":[
		{
			"bufferView":0,
			"componentType":5126,
			"count":2139,
			"max":[
				2.766540050506592,
				5.622132301330566,
				2.638044834136963
			],
			"min":[
				-2.6244125366210938,
				0.05912184715270996,
				-2.731112003326416
			],
			"type":"VEC3"
		},
		{
			"bufferView":1,
			"componentType":5126,
			"count":2139,
			"type":"VEC2"
		},
		{
			"bufferView":2,
			"componentType":5126,
			"count":2139,
			"type":"VEC3"
		},
		{
			"bufferView":3,
			"componentType":5123,
			"count":8016,
			"type":"SCALAR"
		}
	],
	"bufferViews":[
		{
			"buffer":0,
			"byteLength":25668,
			"byteOffset":0,
			"target":34962
		},
		{
			"buffer":0,
			"byteLength":17112,
			"byteOffset":25668,
			"target":34962
		},
		{
			"buffer":0,
			"byteLength":25668,
			"byteOffset":42780,
			"target":34962
		},
		{
			"buffer":0,
			"byteLength":16032,
			"byteOffset":68448,
			"target":34963
		}
	],
	"samplers":[
		{
			"magFilter":9729,
			"minFilter":9987
		}
	],
	"buffers":[
		{
			"byteLength":84480,
			"uri":"Planet2.bin"
		}
	]
}
