{
	"asset":{
		"generator":"Khronos glTF Blender I/O v3.5.30",
		"version":"2.0"
	},
	"scene":0,
	"scenes":[
		{
			"name":"Scene",
			"nodes":[
				0
			]
		}
	],
	"nodes":[
		{
			"mesh":0,
			"name":"Planet1"
		}
	],
	"materials":[
		{
			"doubleSided":true,
			"name":"\u30de\u30c6\u30ea\u30a2\u30eb",
			"pbrMetallicRoughness":{
				"baseColorTexture":{
					"index":0
				},
				"metallicFactor":0,
				"roughnessFactor":0.5
			}
		}
	],
	"meshes":[
		{
			"name":"Planet_5_Icosphere.007",
			"primitives":[
				{
					"attributes":{
						"POSITION":0,
						"TEXCOORD_0":1,
						"NORMAL":2
					},
					"indices":3,
					"material":0
				}
			]
		}
	],
	"textures":[
		{
			"sampler":0,
			"source":0
		}
	],
	"images":[
		{
			"mimeType":"image/png",
			"name":"Planet1",
			"uri":"Planet1.png"
		}
	],
	"accessors":[
		{
			"bufferView":0,
			"componentType":5126,
			"count":1150,
			"max":[
				2.972327947616577,
				4.904783725738525,
				2.4828743934631348
			],
			"min":[
				-2.191725730895996,
				-0.8882272243499756,
				-2.9471538066864014
			],
			"type":"VEC3"
		},
		{
			"bufferView":1,
			"componentType":5126,
			"count":1150,
			"type":"VEC2"
		},
		{
			"bufferView":2,
			"componentType":5126,
			"count":1150,
			"type":"VEC3"
		},
		{
			"bufferView":3,
			"componentType":5123,
			"count":3960,
			"type":"SCALAR"
		}
	],
	"bufferViews":[
		{
			"buffer":0,
			"byteLength":13800,
			"byteOffset":0,
			"target":34962
		},
		{
			"buffer":0,
			"byteLength":9200,
			"byteOffset":13800,
			"target":34962
		},
		{
			"buffer":0,
			"byteLength":13800,
			"byteOffset":23000,
			"target":34962
		},
		{
			"buffer":0,
			"byteLength":7920,
			"byteOffset":36800,
			"target":34963
		}
	],
	"samplers":[
		{
			"magFilter":9729,
			"minFilter":9987
		}
	],
	"buffers":[
		{
			"byteLength":44720,
			"uri":"Planet1.bin"
		}
	]
}
