{
	"asset":{
		"generator":"Khronos glTF Blender I/O v3.5.30",
		"version":"2.0"
	},
	"scene":0,
	"scenes":[
		{
			"name":"Scene",
			"nodes":[
				0
			]
		}
	],
	"nodes":[
		{
			"mesh":0,
			"name":"Tree",
			"rotation":[
				0,
				0.7071068286895752,
				0,
				0.7071067094802856
			]
		}
	],
	"materials":[
		{
			"doubleSided":true,
			"name":"\u30de\u30c6\u30ea\u30a2\u30eb",
			"pbrMetallicRoughness":{
				"baseColorTexture":{
					"index":0
				},
				"metallicFactor":0,
				"roughnessFactor":0.5
			}
		}
	],
	"meshes":[
		{
			"name":"Tree_Swirl_1_CUBezierCurve.015",
			"primitives":[
				{
					"attributes":{
						"POSITION":0,
						"TEXCOORD_0":1,
						"NORMAL":2
					},
					"indices":3,
					"material":0
				}
			]
		}
	],
	"textures":[
		{
			"sampler":0,
			"source":0
		}
	],
	"images":[
		{
			"mimeType":"image/png",
			"name":"White",
			"uri":"White.png"
		}
	],
	"accessors":[
		{
			"bufferView":0,
			"componentType":5126,
			"count":1872,
			"max":[
				0.4797096252441406,
				7.349319934844971,
				1.8261737823486328
			],
			"min":[
				-1.2260704040527344,
				-1.5995937019397388e-08,
				-2.804610252380371
			],
			"type":"VEC3"
		},
		{
			"bufferView":1,
			"componentType":5126,
			"count":1872,
			"type":"VEC2"
		},
		{
			"bufferView":2,
			"componentType":5126,
			"count":1872,
			"type":"VEC3"
		},
		{
			"bufferView":3,
			"componentType":5123,
			"count":6030,
			"type":"SCALAR"
		}
	],
	"bufferViews":[
		{
			"buffer":0,
			"byteLength":22464,
			"byteOffset":0,
			"target":34962
		},
		{
			"buffer":0,
			"byteLength":14976,
			"byteOffset":22464,
			"target":34962
		},
		{
			"buffer":0,
			"byteLength":22464,
			"byteOffset":37440,
			"target":34962
		},
		{
			"buffer":0,
			"byteLength":12060,
			"byteOffset":59904,
			"target":34963
		}
	],
	"samplers":[
		{
			"magFilter":9729,
			"minFilter":9987
		}
	],
	"buffers":[
		{
			"byteLength":71964,
			"uri":"PlayerTree.bin"
		}
	]
}
