{
	"asset":{
		"generator":"Khronos glTF Blender I/O v3.5.30",
		"version":"2.0"
	},
	"scene":0,
	"scenes":[
		{
			"name":"Scene",
			"nodes":[
				0
			]
		}
	],
	"nodes":[
		{
			"mesh":0,
			"name":"House",
			"rotation":[
				0.4999999701976776,
				0.4999999701976776,
				-0.5,
				0.5
			],
			"scale":[
				1.730493187904358,
				1.730493187904358,
				1.7304933071136475
			],
			"translation":[
				-0.0028247833251953125,
				0,
				0.07020187377929688
			]
		}
	],
	"materials":[
		{
			"doubleSided":true,
			"name":"House",
			"pbrMetallicRoughness":{
				"baseColorTexture":{
					"index":0
				},
				"metallicFactor":0,
				"roughnessFactor":0.5
			}
		}
	],
	"meshes":[
		{
			"name":"House_Cylinder_Cube.046",
			"primitives":[
				{
					"attributes":{
						"POSITION":0,
						"TEXCOORD_0":1,
						"NORMAL":2
					},
					"indices":3,
					"material":0
				}
			]
		}
	],
	"textures":[
		{
			"sampler":0,
			"source":0
		}
	],
	"images":[
		{
			"mimeType":"image/png",
			"name":"Planet1",
			"uri":"Planet1.png"
		}
	],
	"accessors":[
		{
			"bufferView":0,
			"componentType":5126,
			"count":1118,
			"max":[
				2.804297924041748,
				2.804297924041748,
				-0.004143999889492989
			],
			"min":[
				-2.8042991161346436,
				-2.8042991161346436,
				-4.328073978424072
			],
			"type":"VEC3"
		},
		{
			"bufferView":1,
			"componentType":5126,
			"count":1118,
			"type":"VEC2"
		},
		{
			"bufferView":2,
			"componentType":5126,
			"count":1118,
			"type":"VEC3"
		},
		{
			"bufferView":3,
			"componentType":5123,
			"count":3066,
			"type":"SCALAR"
		}
	],
	"bufferViews":[
		{
			"buffer":0,
			"byteLength":13416,
			"byteOffset":0,
			"target":34962
		},
		{
			"buffer":0,
			"byteLength":8944,
			"byteOffset":13416,
			"target":34962
		},
		{
			"buffer":0,
			"byteLength":13416,
			"byteOffset":22360,
			"target":34962
		},
		{
			"buffer":0,
			"byteLength":6132,
			"byteOffset":35776,
			"target":34963
		}
	],
	"samplers":[
		{
			"magFilter":9729,
			"minFilter":9987
		}
	],
	"buffers":[
		{
			"byteLength":41908,
			"uri":"testHouse.bin"
		}
	]
}
