{
	"asset":{
		"generator":"Khronos glTF Blender I/O v3.5.30",
		"version":"2.0"
	},
	"scene":0,
	"scenes":[
		{
			"name":"Scene",
			"nodes":[
				0,
				1
			]
		}
	],
	"nodes":[
		{
			"mesh":0,
			"name":"Headband"
		},
		{
			"mesh":1,
			"name":"Panda"
		}
	],
	"materials":[
		{
			"doubleSided":true,
			"name":"Atlas",
			"pbrMetallicRoughness":{
				"baseColorTexture":{
					"index":0
				},
				"metallicFactor":0,
				"roughnessFactor":0.5
			}
		},
		{
			"doubleSided":true,
			"name":"Atlas.001",
			"pbrMetallicRoughness":{
				"baseColorTexture":{
					"index":1
				},
				"metallicFactor":0,
				"roughnessFactor":0.5
			}
		}
	],
	"meshes":[
		{
			"name":"Cube.000",
			"primitives":[
				{
					"attributes":{
						"POSITION":0,
						"TEXCOORD_0":1,
						"TEXCOORD_1":2,
						"TEXCOORD_2":3,
						"NORMAL":4
					},
					"indices":5,
					"material":0
				}
			]
		},
		{
			"name":"Cube.004",
			"primitives":[
				{
					"attributes":{
						"COLOR_0":6,
						"POSITION":7,
						"TEXCOORD_0":8,
						"TEXCOORD_1":9,
						"TEXCOORD_2":10,
						"NORMAL":11
					},
					"indices":12,
					"material":1
				}
			]
		}
	],
	"textures":[
		{
			"sampler":0,
			"source":0
		},
		{
			"sampler":0,
			"source":0
		}
	],
	"images":[
		{
			"mimeType":"image/png",
			"name":"Sushi_Atlas",
			"uri":"Sushi_Atlas.png"
		}
	],
	"accessors":[
		{
			"bufferView":0,
			"componentType":5126,
			"count":200,
			"max":[
				0.6437166333198547,
				3.246831178665161,
				0.5223079323768616
			],
			"min":[
				-0.6879908442497253,
				2.6139726638793945,
				-0.6444669961929321
			],
			"type":"VEC3"
		},
		{
			"bufferView":1,
			"componentType":5126,
			"count":200,
			"type":"VEC2"
		},
		{
			"bufferView":2,
			"componentType":5126,
			"count":200,
			"type":"VEC2"
		},
		{
			"bufferView":3,
			"componentType":5126,
			"count":200,
			"type":"VEC2"
		},
		{
			"bufferView":4,
			"componentType":5126,
			"count":200,
			"type":"VEC3"
		},
		{
			"bufferView":5,
			"componentType":5123,
			"count":564,
			"type":"SCALAR"
		},
		{
			"bufferView":6,
			"componentType":5123,
			"count":2423,
			"normalized":true,
			"type":"VEC4"
		},
		{
			"bufferView":7,
			"componentType":5126,
			"count":2423,
			"max":[
				2.5272886753082275,
				3.331982135772705,
				0.7162653207778931
			],
			"min":[
				-2.527289867401123,
				-0.0021971105597913265,
				-1.125101923942566
			],
			"type":"VEC3"
		},
		{
			"bufferView":8,
			"componentType":5126,
			"count":2423,
			"type":"VEC2"
		},
		{
			"bufferView":9,
			"componentType":5126,
			"count":2423,
			"type":"VEC2"
		},
		{
			"bufferView":10,
			"componentType":5126,
			"count":2423,
			"type":"VEC2"
		},
		{
			"bufferView":11,
			"componentType":5126,
			"count":2423,
			"type":"VEC3"
		},
		{
			"bufferView":12,
			"componentType":5123,
			"count":6840,
			"type":"SCALAR"
		}
	],
	"bufferViews":[
		{
			"buffer":0,
			"byteLength":2400,
			"byteOffset":0,
			"target":34962
		},
		{
			"buffer":0,
			"byteLength":1600,
			"byteOffset":2400,
			"target":34962
		},
		{
			"buffer":0,
			"byteLength":1600,
			"byteOffset":4000,
			"target":34962
		},
		{
			"buffer":0,
			"byteLength":1600,
			"byteOffset":5600,
			"target":34962
		},
		{
			"buffer":0,
			"byteLength":2400,
			"byteOffset":7200,
			"target":34962
		},
		{
			"buffer":0,
			"byteLength":1128,
			"byteOffset":9600,
			"target":34963
		},
		{
			"buffer":0,
			"byteLength":19384,
			"byteOffset":10728,
			"target":34962
		},
		{
			"buffer":0,
			"byteLength":29076,
			"byteOffset":30112,
			"target":34962
		},
		{
			"buffer":0,
			"byteLength":19384,
			"byteOffset":59188,
			"target":34962
		},
		{
			"buffer":0,
			"byteLength":19384,
			"byteOffset":78572,
			"target":34962
		},
		{
			"buffer":0,
			"byteLength":19384,
			"byteOffset":97956,
			"target":34962
		},
		{
			"buffer":0,
			"byteLength":29076,
			"byteOffset":117340,
			"target":34962
		},
		{
			"buffer":0,
			"byteLength":13680,
			"byteOffset":146416,
			"target":34963
		}
	],
	"samplers":[
		{
			"magFilter":9729,
			"minFilter":9987
		}
	],
	"buffers":[
		{
			"byteLength":160096,
			"uri":"Panda.bin"
		}
	]
}
