# Blender v3.3.1 OBJ File: ''
# www.blender.org
mtllib float_L_arm.mtl
o left_立方体.003
v 0.632328 -0.237274 0.551929
v 1.060844 -1.341132 -0.551929
v 1.060844 -1.341132 0.551929
v 0.980228 -0.237274 -0.551929
v 1.649854 -1.341132 -0.551929
v 1.649854 -1.341132 0.551929
v 0.980228 -0.237274 0.551929
v 0.632328 -0.237274 -0.551929
vt 0.379830 0.446417
vt 0.215733 0.270390
vt 0.379830 0.270390
vt 0.017212 0.860113
vt 0.092075 0.713598
vt 0.092075 0.905527
vt 0.379830 0.209141
vt 0.215733 0.017212
vt 0.379830 0.017212
vt 0.886159 0.733001
vt 0.811296 0.586486
vt 0.886159 0.541072
vt 0.501815 0.818691
vt 0.414254 0.982788
vt 0.414254 0.818691
vt 0.379830 0.235965
vt 0.215733 0.209141
vt 0.215733 0.446417
vt 0.047857 0.686774
vt 0.841941 0.759825
vt 0.501815 0.982788
vt 0.215733 0.235965
vn -0.9322 -0.3619 -0.0000
vn 0.0000 0.0000 -1.0000
vn 0.8550 0.5187 0.0000
vn 0.0000 -0.0000 1.0000
vn 0.0000 -1.0000 -0.0000
vn 0.0000 1.0000 0.0000
usemtl Material.003
s 1
f 1/1/1 2/2/1 3/3/1
f 2/4/2 4/5/2 5/6/2
f 4/7/3 6/8/3 5/9/3
f 7/10/4 3/11/4 6/12/4
f 5/13/5 3/14/5 2/15/5
f 8/16/6 7/17/6 4/7/6
f 1/1/1 8/18/1 2/2/1
f 2/4/2 8/19/2 4/5/2
f 4/7/3 7/17/3 6/8/3
f 7/10/4 1/20/4 3/11/4
f 5/13/5 6/21/5 3/14/5
f 8/16/6 1/22/6 7/17/6
