{
	"asset":{
		"generator":"Khronos glTF Blender I/O v3.5.30",
		"version":"2.0"
	},
	"scene":0,
	"scenes":[
		{
			"name":"Scene",
			"nodes":[
				0
			]
		}
	],
	"nodes":[
		{
			"mesh":0,
			"name":"Cube",
			"scale":[
				3.4416637420654297,
				2.2878787517547607,
				0.7796335220336914
			]
		}
	],
	"materials":[
		{
			"doubleSided":true,
			"name":"Material",
			"pbrMetallicRoughness":{
				"baseColorFactor":[
					0.800000011920929,
					0.800000011920929,
					0.800000011920929,
					1
				],
				"metallicFactor":0,
				"roughnessFactor":0.5
			}
		}
	],
	"meshes":[
		{
			"name":"Cube",
			"primitives":[
				{
					"attributes":{
						"POSITION":0,
						"TEXCOORD_0":1,
						"NORMAL":2
					},
					"indices":3,
					"material":0
				}
			]
		}
	],
	"accessors":[
		{
			"bufferView":0,
			"componentType":5126,
			"count":1102,
			"max":[
				5.393929481506348,
				11.88885498046875,
				78.91448211669922
			],
			"min":[
				-5.393929481506348,
				-2.2059874534606934,
				-78.91448211669922
			],
			"type":"VEC3"
		},
		{
			"bufferView":1,
			"componentType":5126,
			"count":1102,
			"type":"VEC2"
		},
		{
			"bufferView":2,
			"componentType":5126,
			"count":1102,
			"type":"VEC3"
		},
		{
			"bufferView":3,
			"componentType":5123,
			"count":3336,
			"type":"SCALAR"
		}
	],
	"bufferViews":[
		{
			"buffer":0,
			"byteLength":13224,
			"byteOffset":0,
			"target":34962
		},
		{
			"buffer":0,
			"byteLength":8816,
			"byteOffset":13224,
			"target":34962
		},
		{
			"buffer":0,
			"byteLength":13224,
			"byteOffset":22040,
			"target":34962
		},
		{
			"buffer":0,
			"byteLength":6672,
			"byteOffset":35264,
			"target":34963
		}
	],
	"buffers":[
		{
			"byteLength":41936,
			"uri":"Castle.bin"
		}
	]
}
