{
	"asset":{
		"generator":"Khronos glTF Blender I/O v3.5.30",
		"version":"2.0"
	},
	"scene":0,
	"scenes":[
		{
			"name":"Scene",
			"nodes":[
				0
			]
		}
	],
	"nodes":[
		{
			"mesh":0,
			"name":"large_buildingF"
		}
	],
	"materials":[
		{
			"doubleSided":true,
			"name":"\u30de\u30c6\u30ea\u30a2\u30eb.004",
			"pbrMetallicRoughness":{
				"baseColorTexture":{
					"index":0
				},
				"metallicFactor":0,
				"roughnessFactor":0.5
			}
		}
	],
	"meshes":[
		{
			"name":"Mesh large_buildingF",
			"primitives":[
				{
					"attributes":{
						"POSITION":0,
						"TEXCOORD_0":1,
						"NORMAL":2
					},
					"indices":3,
					"material":0
				}
			]
		}
	],
	"textures":[
		{
			"sampler":0,
			"source":0
		}
	],
	"images":[
		{
			"mimeType":"image/png",
			"name":"wall.004",
			"uri":"wall_004.png"
		}
	],
	"accessors":[
		{
			"bufferView":0,
			"componentType":5126,
			"count":2358,
			"max":[
				1.0199999809265137,
				1.5,
				0.42499998211860657
			],
			"min":[
				-1.0199999809265137,
				-5.639932896936113e-18,
				-0.41999998688697815
			],
			"type":"VEC3"
		},
		{
			"bufferView":1,
			"componentType":5126,
			"count":2358,
			"type":"VEC2"
		},
		{
			"bufferView":2,
			"componentType":5126,
			"count":2358,
			"type":"VEC3"
		},
		{
			"bufferView":3,
			"componentType":5123,
			"count":4164,
			"type":"SCALAR"
		}
	],
	"bufferViews":[
		{
			"buffer":0,
			"byteLength":28296,
			"byteOffset":0,
			"target":34962
		},
		{
			"buffer":0,
			"byteLength":18864,
			"byteOffset":28296,
			"target":34962
		},
		{
			"buffer":0,
			"byteLength":28296,
			"byteOffset":47160,
			"target":34962
		},
		{
			"buffer":0,
			"byteLength":8328,
			"byteOffset":75456,
			"target":34963
		}
	],
	"samplers":[
		{
			"magFilter":9729,
			"minFilter":9987
		}
	],
	"buffers":[
		{
			"byteLength":83784,
			"uri":"wall.bin"
		}
	]
}
