# Blender v3.5.0 OBJ File: ''
# www.blender.org
mtllib StagePillar.mtl
o 円柱
v -0.296971 7.504309 0.922007
v -0.477408 -0.572901 0.845380
v -0.296971 -0.572901 0.922008
v -0.477408 7.504309 0.845379
v -0.639429 -0.572901 0.735023
v -0.639429 7.504309 0.735022
v -0.776808 -0.572901 0.595178
v -0.776808 7.504309 0.595177
v -0.884264 -0.572901 0.431219
v -0.884264 7.504309 0.431218
v -0.957668 -0.572901 0.249447
v -0.957668 7.504309 0.249446
v -0.994200 -0.572901 0.056847
v -0.994200 7.504309 0.056846
v -0.992456 -0.572901 -0.139180
v -0.992456 7.504309 -0.139181
v -0.952502 -0.572901 -0.331100
v -0.952502 7.504309 -0.331101
v -0.875875 -0.572901 -0.511537
v -0.875875 7.504309 -0.511538
v -0.765518 -0.572901 -0.673558
v -0.765518 7.504309 -0.673559
v -0.625673 -0.572901 -0.810936
v -0.625673 7.504309 -0.810937
v -0.461714 -0.572901 -0.918392
v -0.461714 7.504309 -0.918393
v -0.279941 -0.572901 -0.991797
v -0.279941 7.504309 -0.991798
v -0.087341 -0.572901 -1.028329
v -0.087341 7.504309 -1.028330
v 0.108685 -0.572901 -1.026585
v 0.108685 7.504309 -1.026586
v 0.300605 -0.572901 -0.986631
v 0.300605 7.504309 -0.986632
v 0.481042 -0.572901 -0.910003
v 0.481042 7.504309 -0.910004
v 0.643064 -0.572901 -0.799647
v 0.643064 7.504309 -0.799648
v 0.780442 -0.572901 -0.659801
v 0.780442 7.504309 -0.659802
v 0.887898 -0.572901 -0.495842
v 0.887898 7.504309 -0.495843
v 0.961303 -0.572901 -0.314070
v 0.961303 7.504309 -0.314071
v 0.997835 -0.572901 -0.121470
v 0.997835 7.504309 -0.121471
v 0.996090 -0.572901 0.074557
v 0.996090 7.504309 0.074556
v 0.956137 -0.572901 0.266476
v 0.956137 7.504309 0.266475
v 0.879509 -0.572901 0.446914
v 0.879509 7.504309 0.446913
v 0.769152 -0.572901 0.608935
v 0.769152 7.504309 0.608934
v 0.629307 -0.572901 0.746313
v 0.629307 7.504309 0.746312
v 0.465348 -0.572901 0.853769
v 0.465348 7.504309 0.853768
v 0.283576 -0.572901 0.927174
v 0.283576 7.504309 0.927173
v 0.090975 -0.572901 0.963706
v 0.090975 7.504309 0.963705
v -0.105051 -0.572901 0.961962
v -0.105051 7.504309 0.961961
vt 1.000000 1.000000
vt 0.968750 0.500000
vt 1.000000 0.500000
vt 0.968750 1.000000
vt 0.937500 0.500000
vt 0.937500 1.000000
vt 0.906250 0.500000
vt 0.906250 1.000000
vt 0.875000 0.500000
vt 0.875000 1.000000
vt 0.843750 0.500000
vt 0.843750 1.000000
vt 0.812500 0.500000
vt 0.812500 1.000000
vt 0.781250 0.500000
vt 0.781250 1.000000
vt 0.750000 0.500000
vt 0.750000 1.000000
vt 0.718750 0.500000
vt 0.718750 1.000000
vt 0.687500 0.500000
vt 0.687500 1.000000
vt 0.656250 0.500000
vt 0.656250 1.000000
vt 0.625000 0.500000
vt 0.625000 1.000000
vt 0.593750 0.500000
vt 0.593750 1.000000
vt 0.562500 0.500000
vt 0.562500 1.000000
vt 0.531250 0.500000
vt 0.531250 1.000000
vt 0.500000 0.500000
vt 0.500000 1.000000
vt 0.468750 0.500000
vt 0.468750 1.000000
vt 0.437500 0.500000
vt 0.437500 1.000000
vt 0.406250 0.500000
vt 0.406250 1.000000
vt 0.375000 0.500000
vt 0.375000 1.000000
vt 0.343750 0.500000
vt 0.343750 1.000000
vt 0.312500 0.500000
vt 0.312500 1.000000
vt 0.281250 0.500000
vt 0.281250 1.000000
vt 0.250000 0.500000
vt 0.250000 1.000000
vt 0.218750 0.500000
vt 0.218750 1.000000
vt 0.187500 0.500000
vt 0.187500 1.000000
vt 0.156250 0.500000
vt 0.156250 1.000000
vt 0.125000 0.500000
vt 0.125000 1.000000
vt 0.093750 0.500000
vt 0.093750 1.000000
vt 0.062500 0.500000
vt 0.158156 0.028269
vt 0.471731 0.158156
vt 0.341844 0.471731
vt 0.062500 1.000000
vt 0.031250 0.500000
vt 0.031250 1.000000
vt 0.000000 0.500000
vt 0.796822 0.014612
vt 0.514612 0.203178
vt 0.703178 0.485388
vt 0.296822 0.485388
vt 0.250000 0.490000
vt 0.203178 0.485388
vt 0.158156 0.471731
vt 0.116663 0.449553
vt 0.080294 0.419706
vt 0.050447 0.383337
vt 0.028269 0.341844
vt 0.014612 0.296822
vt 0.010000 0.250000
vt 0.014612 0.203178
vt 0.028269 0.158156
vt 0.050447 0.116663
vt 0.080294 0.080294
vt 0.116663 0.050447
vt 0.203178 0.014612
vt 0.341844 0.028269
vt 0.250000 0.010000
vt 0.296822 0.014612
vt 0.383337 0.050447
vt 0.419706 0.080294
vt 0.449553 0.116663
vt 0.485388 0.203178
vt 0.471731 0.341844
vt 0.490000 0.250000
vt 0.485388 0.296822
vt 0.449553 0.383337
vt 0.419706 0.419706
vt 0.383337 0.449553
vt 0.000000 1.000000
vt 0.750000 0.490000
vt 0.796822 0.485388
vt 0.841844 0.471731
vt 0.883337 0.449553
vt 0.919706 0.419706
vt 0.949553 0.383337
vt 0.971731 0.341844
vt 0.985388 0.296822
vt 0.990000 0.250000
vt 0.985388 0.203178
vt 0.971731 0.158156
vt 0.949553 0.116663
vt 0.919706 0.080294
vt 0.883337 0.050447
vt 0.841844 0.028269
vt 0.750000 0.010000
vt 0.703178 0.014612
vt 0.658156 0.028269
vt 0.616663 0.050447
vt 0.580294 0.080294
vt 0.550447 0.116663
vt 0.528269 0.158156
vt 0.510000 0.250000
vt 0.514612 0.296822
vt 0.528269 0.341844
vt 0.550447 0.383337
vt 0.580294 0.419706
vt 0.616663 0.449553
vt 0.658156 0.471731
vn -0.3909 0.0000 0.9204
vn -0.5629 0.0000 0.8265
vn -0.7134 0.0000 0.7008
vn -0.8364 0.0000 0.5481
vn -0.9272 0.0000 0.3744
vn -0.9825 -0.0000 0.1864
vn -1.0000 -0.0000 -0.0089
vn -0.9790 -0.0000 -0.2038
vn -0.9204 -0.0000 -0.3909
vn -0.8265 -0.0000 -0.5629
vn -0.7008 -0.0000 -0.7134
vn -0.5482 -0.0000 -0.8364
vn -0.3744 -0.0000 -0.9272
vn -0.1864 -0.0000 -0.9825
vn 0.0089 -0.0000 -1.0000
vn 0.2038 -0.0000 -0.9790
vn 0.3909 -0.0000 -0.9204
vn 0.5629 -0.0000 -0.8265
vn 0.7134 -0.0000 -0.7008
vn 0.8364 -0.0000 -0.5481
vn 0.8364 -0.0000 -0.5482
vn 0.9272 -0.0000 -0.3744
vn 0.9272 -0.0000 -0.3745
vn 0.9825 0.0000 -0.1864
vn 1.0000 0.0000 0.0089
vn 0.9790 0.0000 0.2038
vn 0.9204 0.0000 0.3909
vn 0.8265 0.0000 0.5629
vn 0.7008 0.0000 0.7134
vn 0.5481 0.0000 0.8364
vn 0.3745 0.0000 0.9272
vn 0.1864 0.0000 0.9825
vn 0.0000 1.0000 0.0000
vn -0.0089 0.0000 1.0000
vn -0.2038 0.0000 0.9790
vn -0.0000 -1.0000 -0.0000
usemtl None
s 1
f 1/1/1 2/2/1 3/3/1
f 4/4/2 5/5/2 2/2/2
f 6/6/3 7/7/3 5/5/3
f 8/8/4 9/9/4 7/7/4
f 10/10/5 11/11/5 9/9/5
f 12/12/6 13/13/6 11/11/6
f 14/14/7 15/15/7 13/13/7
f 16/16/8 17/17/8 15/15/8
f 18/18/9 19/19/9 17/17/9
f 20/20/10 21/21/10 19/19/10
f 22/22/11 23/23/11 21/21/11
f 24/24/12 25/25/12 23/23/12
f 26/26/13 27/27/13 25/25/13
f 28/28/14 29/29/14 27/27/14
f 30/30/15 31/31/15 29/29/15
f 32/32/16 33/33/16 31/31/16
f 34/34/17 35/35/17 33/33/17
f 36/36/18 37/37/18 35/35/18
f 38/38/19 39/39/19 37/37/19
f 40/40/20 41/41/21 39/39/21
f 42/42/22 43/43/23 41/41/23
f 44/44/24 45/45/24 43/43/24
f 46/46/25 47/47/25 45/45/25
f 48/48/26 49/49/26 47/47/26
f 50/50/27 51/51/27 49/49/27
f 52/52/28 53/53/28 51/51/28
f 54/54/29 55/55/29 53/53/29
f 56/56/30 57/57/30 55/55/30
f 58/58/31 59/59/31 57/57/31
f 60/60/32 61/61/32 59/59/32
f 38/62/33 22/63/33 6/64/33
f 62/65/34 63/66/34 61/61/34
f 64/67/35 3/68/35 63/66/35
f 31/69/36 47/70/36 63/71/36
f 1/1/1 4/4/1 2/2/1
f 4/4/2 6/6/2 5/5/2
f 6/6/3 8/8/3 7/7/3
f 8/8/4 10/10/4 9/9/4
f 10/10/5 12/12/5 11/11/5
f 12/12/6 14/14/6 13/13/6
f 14/14/7 16/16/7 15/15/7
f 16/16/8 18/18/8 17/17/8
f 18/18/9 20/20/9 19/19/9
f 20/20/10 22/22/10 21/21/10
f 22/22/11 24/24/11 23/23/11
f 24/24/12 26/26/12 25/25/12
f 26/26/13 28/28/13 27/27/13
f 28/28/14 30/30/14 29/29/14
f 30/30/15 32/32/15 31/31/15
f 32/32/16 34/34/16 33/33/16
f 34/34/17 36/36/17 35/35/17
f 36/36/18 38/38/18 37/37/18
f 38/38/19 40/40/19 39/39/19
f 40/40/20 42/42/20 41/41/21
f 42/42/22 44/44/22 43/43/23
f 44/44/24 46/46/24 45/45/24
f 46/46/25 48/48/25 47/47/25
f 48/48/26 50/50/26 49/49/26
f 50/50/27 52/52/27 51/51/27
f 52/52/28 54/54/28 53/53/28
f 54/54/29 56/56/29 55/55/29
f 56/56/30 58/58/30 57/57/30
f 58/58/31 60/60/31 59/59/31
f 60/60/32 62/65/32 61/61/32
f 6/64/33 4/72/33 1/73/33
f 1/73/33 64/74/33 6/64/33
f 64/74/33 62/75/33 6/64/33
f 62/75/33 60/76/33 58/77/33
f 58/77/33 56/78/33 54/79/33
f 54/79/33 52/80/33 50/81/33
f 50/81/33 48/82/33 54/79/33
f 48/82/33 46/83/33 54/79/33
f 46/83/33 44/84/33 42/85/33
f 42/85/33 40/86/33 38/62/33
f 38/62/33 36/87/33 30/88/33
f 36/87/33 34/89/33 30/88/33
f 34/89/33 32/90/33 30/88/33
f 30/88/33 28/91/33 26/92/33
f 26/92/33 24/93/33 22/63/33
f 22/63/33 20/94/33 14/95/33
f 20/94/33 18/96/33 14/95/33
f 18/96/33 16/97/33 14/95/33
f 14/95/33 12/98/33 10/99/33
f 10/99/33 8/100/33 6/64/33
f 62/75/33 58/77/33 6/64/33
f 58/77/33 54/79/33 6/64/33
f 46/83/33 42/85/33 54/79/33
f 42/85/33 38/62/33 54/79/33
f 30/88/33 26/92/33 38/62/33
f 26/92/33 22/63/33 38/62/33
f 14/95/33 10/99/33 22/63/33
f 10/99/33 6/64/33 22/63/33
f 6/64/33 54/79/33 38/62/33
f 62/65/34 64/67/34 63/66/34
f 64/67/35 1/101/35 3/68/35
f 63/71/36 3/102/36 2/103/36
f 2/103/36 5/104/36 7/105/36
f 7/105/36 9/106/36 11/107/36
f 11/107/36 13/108/36 15/109/36
f 15/109/36 17/110/36 19/111/36
f 19/111/36 21/112/36 23/113/36
f 23/113/36 25/114/36 27/115/36
f 27/115/36 29/116/36 31/69/36
f 31/69/36 33/117/36 35/118/36
f 35/118/36 37/119/36 39/120/36
f 39/120/36 41/121/36 43/122/36
f 43/122/36 45/123/36 47/70/36
f 47/70/36 49/124/36 51/125/36
f 51/125/36 53/126/36 55/127/36
f 55/127/36 57/128/36 59/129/36
f 59/129/36 61/130/36 63/71/36
f 63/71/36 2/103/36 15/109/36
f 2/103/36 7/105/36 15/109/36
f 7/105/36 11/107/36 15/109/36
f 15/109/36 19/111/36 31/69/36
f 19/111/36 23/113/36 31/69/36
f 23/113/36 27/115/36 31/69/36
f 31/69/36 35/118/36 47/70/36
f 35/118/36 39/120/36 47/70/36
f 39/120/36 43/122/36 47/70/36
f 47/70/36 51/125/36 63/71/36
f 51/125/36 55/127/36 63/71/36
f 55/127/36 59/129/36 63/71/36
f 63/71/36 15/109/36 31/69/36
