{
	"asset":{
		"generator":"Khronos glTF Blender I/O v3.5.30",
		"version":"2.0"
	},
	"scene":0,
	"scenes":[
		{
			"name":"Scene",
			"nodes":[
				4
			]
		}
	],
	"nodes":[
		{
			"name":"Bone",
			"rotation":[
				0,
				0.7212623357772827,
				0,
				0.6926620006561279
			],
			"translation":[
				-0.04939848557114601,
				-0.1160154938697815,
				0.001999242464080453
			]
		},
		{
			"name":"Bone.001",
			"rotation":[
				-0.004332555457949638,
				0.3113444745540619,
				0.9502862095832825,
				0.001419534208253026
			],
			"scale":[
				1,
				1.0000001192092896,
				1.0000001192092896
			],
			"translation":[
				-0.04939848557114601,
				-0.1160154938697815,
				0.001999242464080453
			]
		},
		{
			"name":"Bone.002",
			"rotation":[
				-0.9324778318405151,
				0.01142012421041727,
				0.02959427982568741,
				0.35983172059059143
			],
			"scale":[
				1,
				0.9999999403953552,
				0.9999999403953552
			],
			"translation":[
				-0.04939848557114601,
				-0.1160154938697815,
				0.001999242464080453
			]
		},
		{
			"mesh":0,
			"name":"\u7acb\u65b9\u4f53",
			"skin":0
		},
		{
			"children":[
				3,
				0,
				1,
				2
			],
			"name":"\u30a2\u30fc\u30de\u30c1\u30e5\u30a2.001"
		}
	],
	"animations":[
		{
			"channels":[
				{
					"sampler":0,
					"target":{
						"node":0,
						"path":"translation"
					}
				},
				{
					"sampler":1,
					"target":{
						"node":0,
						"path":"rotation"
					}
				},
				{
					"sampler":2,
					"target":{
						"node":0,
						"path":"scale"
					}
				},
				{
					"sampler":3,
					"target":{
						"node":1,
						"path":"translation"
					}
				},
				{
					"sampler":4,
					"target":{
						"node":1,
						"path":"rotation"
					}
				},
				{
					"sampler":5,
					"target":{
						"node":1,
						"path":"scale"
					}
				},
				{
					"sampler":6,
					"target":{
						"node":2,
						"path":"translation"
					}
				},
				{
					"sampler":7,
					"target":{
						"node":2,
						"path":"rotation"
					}
				},
				{
					"sampler":8,
					"target":{
						"node":2,
						"path":"scale"
					}
				}
			],
			"name":"\u30a2\u30fc\u30de\u30c1\u30e5\u30a2.001Action",
			"samplers":[
				{
					"input":7,
					"interpolation":"LINEAR",
					"output":8
				},
				{
					"input":7,
					"interpolation":"LINEAR",
					"output":9
				},
				{
					"input":7,
					"interpolation":"LINEAR",
					"output":10
				},
				{
					"input":7,
					"interpolation":"LINEAR",
					"output":11
				},
				{
					"input":7,
					"interpolation":"LINEAR",
					"output":12
				},
				{
					"input":7,
					"interpolation":"LINEAR",
					"output":13
				},
				{
					"input":7,
					"interpolation":"LINEAR",
					"output":14
				},
				{
					"input":7,
					"interpolation":"LINEAR",
					"output":15
				},
				{
					"input":7,
					"interpolation":"LINEAR",
					"output":16
				}
			]
		},
		{
			"channels":[
				{
					"sampler":0,
					"target":{
						"node":0,
						"path":"translation"
					}
				},
				{
					"sampler":1,
					"target":{
						"node":0,
						"path":"rotation"
					}
				},
				{
					"sampler":2,
					"target":{
						"node":0,
						"path":"scale"
					}
				},
				{
					"sampler":3,
					"target":{
						"node":1,
						"path":"translation"
					}
				},
				{
					"sampler":4,
					"target":{
						"node":1,
						"path":"rotation"
					}
				},
				{
					"sampler":5,
					"target":{
						"node":1,
						"path":"scale"
					}
				},
				{
					"sampler":6,
					"target":{
						"node":2,
						"path":"translation"
					}
				},
				{
					"sampler":7,
					"target":{
						"node":2,
						"path":"rotation"
					}
				},
				{
					"sampler":8,
					"target":{
						"node":2,
						"path":"scale"
					}
				}
			],
			"name":"\u30a2\u30fc\u30de\u30c1\u30e5\u30a2Action",
			"samplers":[
				{
					"input":17,
					"interpolation":"LINEAR",
					"output":18
				},
				{
					"input":17,
					"interpolation":"LINEAR",
					"output":19
				},
				{
					"input":17,
					"interpolation":"LINEAR",
					"output":20
				},
				{
					"input":17,
					"interpolation":"LINEAR",
					"output":21
				},
				{
					"input":17,
					"interpolation":"LINEAR",
					"output":22
				},
				{
					"input":17,
					"interpolation":"LINEAR",
					"output":23
				},
				{
					"input":17,
					"interpolation":"LINEAR",
					"output":24
				},
				{
					"input":17,
					"interpolation":"LINEAR",
					"output":25
				},
				{
					"input":17,
					"interpolation":"LINEAR",
					"output":26
				}
			]
		},
		{
			"channels":[
				{
					"sampler":0,
					"target":{
						"node":0,
						"path":"translation"
					}
				},
				{
					"sampler":1,
					"target":{
						"node":0,
						"path":"rotation"
					}
				},
				{
					"sampler":2,
					"target":{
						"node":0,
						"path":"scale"
					}
				},
				{
					"sampler":3,
					"target":{
						"node":1,
						"path":"translation"
					}
				},
				{
					"sampler":4,
					"target":{
						"node":1,
						"path":"rotation"
					}
				},
				{
					"sampler":5,
					"target":{
						"node":1,
						"path":"scale"
					}
				},
				{
					"sampler":6,
					"target":{
						"node":2,
						"path":"translation"
					}
				},
				{
					"sampler":7,
					"target":{
						"node":2,
						"path":"rotation"
					}
				},
				{
					"sampler":8,
					"target":{
						"node":2,
						"path":"scale"
					}
				}
			],
			"name":"\u30a2\u30fc\u30de\u30c1\u30e5\u30a2Action.001",
			"samplers":[
				{
					"input":7,
					"interpolation":"LINEAR",
					"output":27
				},
				{
					"input":7,
					"interpolation":"LINEAR",
					"output":28
				},
				{
					"input":7,
					"interpolation":"LINEAR",
					"output":29
				},
				{
					"input":7,
					"interpolation":"LINEAR",
					"output":30
				},
				{
					"input":7,
					"interpolation":"LINEAR",
					"output":31
				},
				{
					"input":7,
					"interpolation":"LINEAR",
					"output":32
				},
				{
					"input":7,
					"interpolation":"LINEAR",
					"output":33
				},
				{
					"input":7,
					"interpolation":"LINEAR",
					"output":34
				},
				{
					"input":7,
					"interpolation":"LINEAR",
					"output":35
				}
			]
		}
	],
	"meshes":[
		{
			"name":"\u7acb\u65b9\u4f53.003",
			"primitives":[
				{
					"attributes":{
						"POSITION":0,
						"TEXCOORD_0":1,
						"NORMAL":2,
						"JOINTS_0":3,
						"WEIGHTS_0":4
					},
					"indices":5
				}
			]
		}
	],
	"skins":[
		{
			"inverseBindMatrices":6,
			"joints":[
				0,
				1,
				2
			],
			"name":"\u30a2\u30fc\u30de\u30c1\u30e5\u30a2.001"
		}
	],
	"accessors":[
		{
			"bufferView":0,
			"componentType":5126,
			"count":34,
			"max":[
				0.6819911003112793,
				0.31330177187919617,
				0.6442824006080627
			],
			"min":[
				-0.4801422357559204,
				-0.8989288806915283,
				-0.7214769721031189
			],
			"type":"VEC3"
		},
		{
			"bufferView":1,
			"componentType":5126,
			"count":34,
			"type":"VEC2"
		},
		{
			"bufferView":2,
			"componentType":5126,
			"count":34,
			"type":"VEC3"
		},
		{
			"bufferView":3,
			"componentType":5121,
			"count":34,
			"type":"VEC4"
		},
		{
			"bufferView":4,
			"componentType":5126,
			"count":34,
			"type":"VEC4"
		},
		{
			"bufferView":5,
			"componentType":5123,
			"count":60,
			"type":"SCALAR"
		},
		{
			"bufferView":6,
			"componentType":5126,
			"count":3,
			"type":"MAT4"
		},
		{
			"bufferView":7,
			"componentType":5126,
			"count":51,
			"max":[
				2.0833333333333335
			],
			"min":[
				0
			],
			"type":"SCALAR"
		},
		{
			"bufferView":8,
			"componentType":5126,
			"count":51,
			"type":"VEC3"
		},
		{
			"bufferView":9,
			"componentType":5126,
			"count":51,
			"type":"VEC4"
		},
		{
			"bufferView":10,
			"componentType":5126,
			"count":51,
			"type":"VEC3"
		},
		{
			"bufferView":11,
			"componentType":5126,
			"count":51,
			"type":"VEC3"
		},
		{
			"bufferView":12,
			"componentType":5126,
			"count":51,
			"type":"VEC4"
		},
		{
			"bufferView":13,
			"componentType":5126,
			"count":51,
			"type":"VEC3"
		},
		{
			"bufferView":14,
			"componentType":5126,
			"count":51,
			"type":"VEC3"
		},
		{
			"bufferView":15,
			"componentType":5126,
			"count":51,
			"type":"VEC4"
		},
		{
			"bufferView":16,
			"componentType":5126,
			"count":51,
			"type":"VEC3"
		},
		{
			"bufferView":17,
			"componentType":5126,
			"count":1,
			"max":[
				0
			],
			"min":[
				0
			],
			"type":"SCALAR"
		},
		{
			"bufferView":18,
			"componentType":5126,
			"count":1,
			"type":"VEC3"
		},
		{
			"bufferView":19,
			"componentType":5126,
			"count":1,
			"type":"VEC4"
		},
		{
			"bufferView":20,
			"componentType":5126,
			"count":1,
			"type":"VEC3"
		},
		{
			"bufferView":21,
			"componentType":5126,
			"count":1,
			"type":"VEC3"
		},
		{
			"bufferView":22,
			"componentType":5126,
			"count":1,
			"type":"VEC4"
		},
		{
			"bufferView":23,
			"componentType":5126,
			"count":1,
			"type":"VEC3"
		},
		{
			"bufferView":24,
			"componentType":5126,
			"count":1,
			"type":"VEC3"
		},
		{
			"bufferView":25,
			"componentType":5126,
			"count":1,
			"type":"VEC4"
		},
		{
			"bufferView":26,
			"componentType":5126,
			"count":1,
			"type":"VEC3"
		},
		{
			"bufferView":27,
			"componentType":5126,
			"count":51,
			"type":"VEC3"
		},
		{
			"bufferView":28,
			"componentType":5126,
			"count":51,
			"type":"VEC4"
		},
		{
			"bufferView":29,
			"componentType":5126,
			"count":51,
			"type":"VEC3"
		},
		{
			"bufferView":30,
			"componentType":5126,
			"count":51,
			"type":"VEC3"
		},
		{
			"bufferView":31,
			"componentType":5126,
			"count":51,
			"type":"VEC4"
		},
		{
			"bufferView":32,
			"componentType":5126,
			"count":51,
			"type":"VEC3"
		},
		{
			"bufferView":33,
			"componentType":5126,
			"count":51,
			"type":"VEC3"
		},
		{
			"bufferView":34,
			"componentType":5126,
			"count":51,
			"type":"VEC4"
		},
		{
			"bufferView":35,
			"componentType":5126,
			"count":51,
			"type":"VEC3"
		}
	],
	"bufferViews":[
		{
			"buffer":0,
			"byteLength":408,
			"byteOffset":0,
			"target":34962
		},
		{
			"buffer":0,
			"byteLength":272,
			"byteOffset":408,
			"target":34962
		},
		{
			"buffer":0,
			"byteLength":408,
			"byteOffset":680,
			"target":34962
		},
		{
			"buffer":0,
			"byteLength":136,
			"byteOffset":1088,
			"target":34962
		},
		{
			"buffer":0,
			"byteLength":544,
			"byteOffset":1224,
			"target":34962
		},
		{
			"buffer":0,
			"byteLength":120,
			"byteOffset":1768,
			"target":34963
		},
		{
			"buffer":0,
			"byteLength":192,
			"byteOffset":1888
		},
		{
			"buffer":0,
			"byteLength":204,
			"byteOffset":2080
		},
		{
			"buffer":0,
			"byteLength":612,
			"byteOffset":2284
		},
		{
			"buffer":0,
			"byteLength":816,
			"byteOffset":2896
		},
		{
			"buffer":0,
			"byteLength":612,
			"byteOffset":3712
		},
		{
			"buffer":0,
			"byteLength":612,
			"byteOffset":4324
		},
		{
			"buffer":0,
			"byteLength":816,
			"byteOffset":4936
		},
		{
			"buffer":0,
			"byteLength":612,
			"byteOffset":5752
		},
		{
			"buffer":0,
			"byteLength":612,
			"byteOffset":6364
		},
		{
			"buffer":0,
			"byteLength":816,
			"byteOffset":6976
		},
		{
			"buffer":0,
			"byteLength":612,
			"byteOffset":7792
		},
		{
			"buffer":0,
			"byteLength":4,
			"byteOffset":8404
		},
		{
			"buffer":0,
			"byteLength":12,
			"byteOffset":8408
		},
		{
			"buffer":0,
			"byteLength":16,
			"byteOffset":8420
		},
		{
			"buffer":0,
			"byteLength":12,
			"byteOffset":8436
		},
		{
			"buffer":0,
			"byteLength":12,
			"byteOffset":8448
		},
		{
			"buffer":0,
			"byteLength":16,
			"byteOffset":8460
		},
		{
			"buffer":0,
			"byteLength":12,
			"byteOffset":8476
		},
		{
			"buffer":0,
			"byteLength":12,
			"byteOffset":8488
		},
		{
			"buffer":0,
			"byteLength":16,
			"byteOffset":8500
		},
		{
			"buffer":0,
			"byteLength":12,
			"byteOffset":8516
		},
		{
			"buffer":0,
			"byteLength":612,
			"byteOffset":8528
		},
		{
			"buffer":0,
			"byteLength":816,
			"byteOffset":9140
		},
		{
			"buffer":0,
			"byteLength":612,
			"byteOffset":9956
		},
		{
			"buffer":0,
			"byteLength":612,
			"byteOffset":10568
		},
		{
			"buffer":0,
			"byteLength":816,
			"byteOffset":11180
		},
		{
			"buffer":0,
			"byteLength":612,
			"byteOffset":11996
		},
		{
			"buffer":0,
			"byteLength":612,
			"byteOffset":12608
		},
		{
			"buffer":0,
			"byteLength":816,
			"byteOffset":13220
		},
		{
			"buffer":0,
			"byteLength":612,
			"byteOffset":14036
		}
	],
	"buffers":[
		{
			"byteLength":14648,
			"uri":"Test.bin"
		}
	]
}
