{
    "asset" : {
        "generator" : "Khronos glTF Blender I/O v3.3.32",
        "version" : "2.0"
    },
    "scene" : 0,
    "scenes" : [
        {
            "name" : "Scene",
            "nodes" : [
                0
            ]
        }
    ],
    "nodes" : [
        {
            "mesh" : 0,
            "name" : "\u5186\u67f1.001",
            "rotation" : [
                0,
                0,
                -0.7071068286895752,
                0.7071068286895752
            ],
            "scale" : [
                0.48211991786956787,
                2.3157639503479004,
                0.48211991786956787
            ],
            "translation" : [
                0,
                0.5063083171844482,
                0
            ]
        }
    ],
    "meshes" : [
        {
            "name" : "\u5186\u67f1.001",
            "primitives" : [
                {
                    "attributes" : {
                        "POSITION" : 0,
                        "NORMAL" : 1,
                        "TEXCOORD_0" : 2
                    },
                    "indices" : 3
                }
            ]
        }
    ],
    "accessors" : [
        {
            "bufferView" : 0,
            "componentType" : 5126,
            "count" : 3894,
            "max" : [
                9.052105903625488,
                1,
                2.0741727352142334
            ],
            "min" : [
                -4.575953483581543,
                -1,
                -2.0741727352142334
            ],
            "type" : "VEC3"
        },
        {
            "bufferView" : 1,
            "componentType" : 5126,
            "count" : 3894,
            "type" : "VEC3"
        },
        {
            "bufferView" : 2,
            "componentType" : 5126,
            "count" : 3894,
            "type" : "VEC2"
        },
        {
            "bufferView" : 3,
            "componentType" : 5123,
            "count" : 6672,
            "type" : "SCALAR"
        }
    ],
    "bufferViews" : [
        {
            "buffer" : 0,
            "byteLength" : 46728,
            "byteOffset" : 0,
            "target" : 34962
        },
        {
            "buffer" : 0,
            "byteLength" : 46728,
            "byteOffset" : 46728,
            "target" : 34962
        },
        {
            "buffer" : 0,
            "byteLength" : 31152,
            "byteOffset" : 93456,
            "target" : 34962
        },
        {
            "buffer" : 0,
            "byteLength" : 13344,
            "byteOffset" : 124608,
            "target" : 34963
        }
    ],
    "buffers" : [
        {
            "byteLength" : 137952,
            "uri" : "Test02.bin"
        }
    ]
}
